<svg xmlns="http://www.w3.org/2000/svg" width="460" height="234" viewBox="0 0 460 234" role="img" aria-labelledby="title"><title id="title">ScholarAI: Scholarship matching with transparent scoring and eligibility explanations. Next.js · TypeScript · Supabase</title><style>text{font-family:Arial,Helvetica,sans-serif;fill:#fff4f7}.muted{fill:#c5bacb}.mono{font-family:ui-monospace,SFMono-Regular,Consolas,monospace}.signal{stroke-dasharray:18 480;animation:flow 12s linear infinite}.cursor{animation:cursor 1.6s step-end infinite}@keyframes flow{to{stroke-dashoffset:-996}}@keyframes cursor{50%{opacity:0}}@media(prefers-reduced-motion:reduce){*{animation:none!important}.signal{stroke-dasharray:none}}</style><rect width="460" height="234" rx="16" fill="#16141d"/><g transform="translate(432 20) rotate(18) scale(0.34)"><path transform="rotate(0)" d="M0 0 C-11 -5 -13 -18 -5 -23 L0 -19 L5 -23 C13 -18 11 -5 0 0Z" fill="#f3abc6" stroke="#ffd9e6" stroke-width=".6"/><path transform="rotate(72)" d="M0 0 C-11 -5 -13 -18 -5 -23 L0 -19 L5 -23 C13 -18 11 -5 0 0Z" fill="#f3abc6" stroke="#ffd9e6" stroke-width=".6"/><path transform="rotate(144)" d="M0 0 C-11 -5 -13 -18 -5 -23 L0 -19 L5 -23 C13 -18 11 -5 0 0Z" fill="#f3abc6" stroke="#ffd9e6" stroke-width=".6"/><path transform="rotate(216)" d="M0 0 C-11 -5 -13 -18 -5 -23 L0 -19 L5 -23 C13 -18 11 -5 0 0Z" fill="#f3abc6" stroke="#ffd9e6" stroke-width=".6"/><path transform="rotate(288)" d="M0 0 C-11 -5 -13 -18 -5 -23 L0 -19 L5 -23 C13 -18 11 -5 0 0Z" fill="#f3abc6" stroke="#ffd9e6" stroke-width=".6"/><circle r="3" fill="#f9dcad"/><circle r="1.2" fill="#9c5e78"/></g><g stroke="#bba4e5" stroke-width="1.5" fill="none" opacity=".8"><path d="M354 47 H376 L400 72 H429 M354 73 H376 L400 47 H429 M354 99 H376 L400 99 H429"/><circle cx="350" cy="47" r="4"/><circle cx="350" cy="73" r="4"/><circle cx="350" cy="99" r="4"/></g><text x="26" y="47" font-size="31" fill="#fff4f7" style="fill:#fff4f7" font-weight="700" letter-spacing="-.8">ScholarAI</text><text x="26" y="76" font-size="11" fill="#f3abc6" style="fill:#f3abc6" letter-spacing="1.2">EXPLAINABLE MATCHING</text><text x="26" y="122" font-size="18" fill="#c5bacb" style="fill:#c5bacb" >Scholarship matching with transparent</text><text x="26" y="149" font-size="18" fill="#c5bacb" style="fill:#c5bacb" >scoring and eligibility explanations.</text><path d="M26 173 H434" stroke="#39303f"/><text x="26" y="207" font-size="15" fill="#fff4f7" style="fill:#fff4f7" >Next.js · TypeScript · Supabase</text><text x="434" y="207" font-size="22" fill="#f3abc6" style="fill:#f3abc6" text-anchor="end">↗</text></svg>
